<svg width="27" height="27" viewBox="0 0 27 27" fill="none" xmlns="http://www.w3.org/2000/svg">
<path fill-rule="evenodd" clip-rule="evenodd" d="M6.95758 22.8851C7.92149 22.8851 8.70584 23.6681 8.70584 24.6321C8.70584 25.596 7.92149 26.3803 6.95758 26.3803C5.99368 26.3803 5.21068 25.596 5.21068 24.6321C5.21068 23.6681 5.99368 22.8851 6.95758 22.8851ZM22.186 22.8851C23.1513 22.8851 23.9357 23.6681 23.9357 24.6321C23.9357 25.596 23.1513 26.3803 22.186 26.3803C21.2221 26.3803 20.4391 25.596 20.4391 24.6321C20.4391 23.6681 21.2221 22.8851 22.186 22.8851ZM1.18523 0.0128076L3.99324 0.49881C4.44549 0.57846 4.78974 0.953761 4.82889 1.41276L5.14615 5.19413L6.32585 5.19464C6.51835 5.19472 6.70882 5.19481 6.89727 5.19489L9.06308 5.19592C9.23572 5.19601 9.40643 5.1961 9.57523 5.19618L11.9666 5.19749C12.1169 5.19758 12.2653 5.19767 12.4119 5.19776L14.0877 5.19883C14.2205 5.19892 14.3516 5.19901 14.481 5.1991L15.9549 5.20018C16.0713 5.20027 16.1861 5.20037 16.2993 5.20046L17.5845 5.20156C17.6855 5.20165 17.7851 5.20175 17.8833 5.20184L18.7279 5.20268C18.8176 5.20277 18.9058 5.20287 18.9927 5.20296L19.9708 5.2041C20.0471 5.20419 20.1221 5.20429 20.1959 5.20438L21.0218 5.20554C21.0858 5.20563 21.1486 5.20573 21.2103 5.20583L21.7352 5.2067C21.7902 5.2068 21.8442 5.2069 21.897 5.207L22.4817 5.20818C22.5264 5.20828 22.5702 5.20838 22.6129 5.20848L22.9728 5.20938C23.01 5.20948 23.0464 5.20958 23.0819 5.20968L23.4677 5.2109C23.4966 5.211 23.5247 5.2111 23.5521 5.21121L23.7786 5.21213C23.8016 5.21223 23.824 5.21234 23.8456 5.21244L24.0748 5.21369C24.0914 5.21379 24.1075 5.2139 24.123 5.214L24.2479 5.21495C24.2602 5.21505 24.272 5.21516 24.2833 5.21527L24.3732 5.21623C24.3819 5.21633 24.3902 5.21644 24.3981 5.21655L24.4593 5.21752C24.465 5.21762 24.4705 5.21773 24.4756 5.21784L24.5143 5.21882C24.5179 5.21893 24.5211 5.21904 24.5242 5.21915L24.5523 5.22047C24.554 5.22058 24.5556 5.22069 24.5571 5.2208C24.5702 5.22203 24.5721 5.22225 24.5741 5.22248C25.326 5.33183 25.9875 5.72468 26.4384 6.32948C26.8893 6.93294 27.0783 7.67679 26.9703 8.42199L25.6892 17.2753C25.4475 18.9601 23.9841 20.2305 22.2831 20.2305H7.53971C5.76175 20.2305 4.25649 18.8427 4.11204 17.0674L2.87544 2.36047L0.840979 2.00947C0.288827 1.91227 -0.0797245 1.38981 0.0147759 0.837661C0.111976 0.285509 0.645228 -0.0735928 1.18523 0.0128076ZM6.05501 7.2196L5.31625 7.21914L6.1303 16.9014C6.1897 17.6466 6.79855 18.2055 7.54241 18.2055H22.2804C22.9838 18.2055 23.5845 17.6817 23.6844 16.9864L24.9669 8.13174C24.9966 7.92114 24.944 7.71054 24.8157 7.54044C24.6888 7.36899 24.5025 7.25829 24.2919 7.22859C24.2822 7.22896 24.2589 7.2293 24.2226 7.22961L24.0758 7.23045C24.0451 7.23058 24.0113 7.23069 23.9745 7.2308L23.2097 7.23197C23.1452 7.23201 23.0781 7.23205 23.0086 7.23209L21.2104 7.23201C21.1101 7.23197 21.0078 7.23193 20.9038 7.23189L18.8516 7.23064C18.7287 7.23055 18.6044 7.23046 18.4788 7.23036L17.3176 7.22943C17.1854 7.22932 17.0521 7.22921 16.9179 7.22909L15.688 7.22801C15.5491 7.22789 15.4095 7.22776 15.2694 7.22763L14.4221 7.22685C14.28 7.22672 14.1374 7.22659 13.9945 7.22646L12.7016 7.22525C12.5574 7.22511 12.4132 7.22498 12.2689 7.22484L11.404 7.22404C11.2601 7.22391 11.1163 7.22378 10.9728 7.22364L10.1153 7.22287C9.97308 7.22274 9.83128 7.22261 9.68998 7.22249L8.43378 7.2214C8.29619 7.22129 8.15933 7.22118 8.0233 7.22107L6.43579 7.21986C6.30768 7.21977 6.18073 7.21968 6.05501 7.2196ZM20.1122 10.1842C20.6711 10.1842 21.1247 10.6378 21.1247 11.1967C21.1247 11.7556 20.6711 12.2092 20.1122 12.2092H16.37C15.8097 12.2092 15.3575 11.7556 15.3575 11.1967C15.3575 10.6378 15.8097 10.1842 16.37 10.1842H20.1122Z" fill="black"/>
</svg>
