<svg width="26" height="22" viewBox="0 0 26 22" fill="none" xmlns="http://www.w3.org/2000/svg">
<path d="M0 10.6748C0 10.0765 0.444606 9.58202 1.02145 9.50376L1.18182 9.49297L21.9566 9.49392L14.4513 2.01926C13.9888 1.55873 13.9872 0.810446 14.4477 0.347923C14.8664 -0.0725498 15.5228 -0.112108 15.9862 0.230181L16.119 0.344324L25.6524 9.83669C25.7133 9.89739 25.7663 9.96309 25.8112 10.0325C25.8239 10.0534 25.8368 10.0747 25.8491 10.0965C25.8604 10.1152 25.8706 10.1346 25.8802 10.1542C25.8935 10.1827 25.9065 10.2122 25.9184 10.2423C25.928 10.2655 25.936 10.2881 25.9433 10.3108C25.952 10.339 25.9605 10.369 25.9678 10.3995C25.9732 10.4208 25.9775 10.4413 25.9812 10.4619C25.9865 10.4925 25.9909 10.5242 25.9941 10.5563C25.9969 10.5807 25.9985 10.605 25.9995 10.6292C25.9997 10.6439 26 10.6593 26 10.6748L25.9994 10.7206C25.9985 10.7438 25.9969 10.7669 25.9947 10.7901L26 10.6748C26 10.7494 25.9931 10.8223 25.9799 10.8931C25.9768 10.91 25.9732 10.9273 25.9691 10.9446C25.9607 10.9802 25.951 11.0144 25.9399 11.048C25.9344 11.0647 25.928 11.0825 25.9212 11.1002C25.9073 11.1358 25.8923 11.1697 25.8758 11.2027C25.8682 11.2182 25.8596 11.2345 25.8506 11.2506C25.8358 11.2768 25.8206 11.3018 25.8045 11.3261C25.7931 11.3433 25.7806 11.3612 25.7674 11.3788L25.7572 11.3925C25.7254 11.4341 25.6908 11.4735 25.6539 11.5105L25.6524 11.5116L16.1191 21.0055C15.6566 21.4661 14.9083 21.4645 14.4478 21.002C14.0291 20.5816 13.9923 19.925 14.3365 19.463L14.4512 19.3307L21.9535 11.8576L1.18182 11.8566C0.529118 11.8566 0 11.3275 0 10.6748Z" fill="black"/>
</svg>
