<svg width="27" height="27" viewBox="0 0 27 27" fill="none" xmlns="http://www.w3.org/2000/svg">
<path d="M24.75 18.2138C24.75 22.3088 22.3088 24.75 18.2138 24.75H16.875C16.2563 24.75 15.75 24.2437 15.75 23.625V17.1338C15.75 16.83 15.9975 16.5713 16.3012 16.5713L18.2812 16.5375C18.4387 16.5263 18.5738 16.4138 18.6075 16.2563L19.0013 14.1075C19.035 13.905 18.8775 13.7138 18.6637 13.7138L16.2675 13.7475C15.9525 13.7475 15.705 13.5 15.6938 13.1963L15.6488 10.44C15.6488 10.26 15.795 10.1025 15.9862 10.1025L18.6862 10.0575C18.8775 10.0575 19.0238 9.91127 19.0238 9.72002L18.9787 7.01999C18.9787 6.82874 18.8325 6.6825 18.6413 6.6825L15.6037 6.72751C13.7362 6.76126 12.2513 8.29125 12.285 10.1587L12.3413 13.2525C12.3525 13.5675 12.105 13.815 11.79 13.8263L10.44 13.8487C10.2487 13.8487 10.1025 13.995 10.1025 14.1862L10.1363 16.3238C10.1363 16.515 10.2825 16.6612 10.4737 16.6612L11.8238 16.6388C12.1388 16.6388 12.3862 16.8862 12.3975 17.19L12.4987 23.6025C12.51 24.2325 12.0037 24.75 11.3737 24.75H8.78625C4.69125 24.75 2.25 22.3087 2.25 18.2025V8.78625C2.25 4.69125 4.69125 2.25 8.78625 2.25H18.2138C22.3088 2.25 24.75 4.69125 24.75 8.78625V18.2138Z" fill="#ACACAC"/>
</svg>
