<svg width="29" height="29" viewBox="0 0 29 29" fill="none" xmlns="http://www.w3.org/2000/svg">
<path d="M25.8584 15.6481L22.4992 17.3277C22.2696 17.4485 21.9917 17.4002 21.7984 17.219L19.5388 14.9594C19.2971 14.7177 19.2971 14.3431 19.5388 14.1015L21.8346 11.8056C22.0159 11.6244 22.3059 11.576 22.5355 11.6969L25.8584 13.3644C26.813 13.8235 26.813 15.1769 25.8584 15.6481Z" fill="#ACACAC"/>
<path d="M19.6958 10.2588C20.0704 10.4401 20.1429 10.9355 19.8529 11.2255L17.835 13.2434L16.9771 14.1014C16.7354 14.343 16.3608 14.343 16.1191 14.1014L7.49163 5.47386C7.0083 4.99053 7.57622 4.20512 8.19247 4.50721L19.6958 10.2588Z" fill="#ACACAC"/>
<path d="M2.41663 24.3478V4.2049C2.41663 3.67323 3.05704 3.39529 3.44371 3.76988L14.0408 14.0528C14.2945 14.2945 14.2825 14.6932 14.0287 14.9349L3.43163 24.7949C3.04496 25.1574 2.41663 24.8795 2.41663 24.3478Z" fill="#ACACAC"/>
<path d="M19.6596 18.7536L8.31332 24.4328C7.69707 24.7349 7.12915 23.9495 7.61248 23.4661L16.1312 14.9474C16.3729 14.7057 16.7475 14.7057 16.9892 14.9474L19.8287 17.787C20.1067 18.077 20.0221 18.5724 19.6596 18.7536Z" fill="#ACACAC"/>
</svg>
