<svg width="25" height="25" viewBox="0 0 25 25" fill="none" xmlns="http://www.w3.org/2000/svg">
<path fill-rule="evenodd" clip-rule="evenodd" d="M11.5978 0C17.9927 0 23.1944 5.20167 23.1944 11.5966C23.1944 14.6137 22.0365 17.3654 20.1418 19.4306L23.8701 23.1511C24.219 23.5001 24.2202 24.0645 23.8712 24.4134C23.6974 24.5897 23.4675 24.6766 23.2389 24.6766C23.0114 24.6766 22.7828 24.5897 22.6077 24.4158L18.8345 20.6531C16.8495 22.2427 14.3328 23.1944 11.5978 23.1944C5.20286 23.1944 0 17.9915 0 11.5966C0 5.20167 5.20286 0 11.5978 0ZM11.5978 1.78629C6.1877 1.78629 1.78629 6.18651 1.78629 11.5966C1.78629 17.0067 6.1877 21.4081 11.5978 21.4081C17.0067 21.4081 21.4081 17.0067 21.4081 11.5966C21.4081 6.18651 17.0067 1.78629 11.5978 1.78629Z" fill="black"/>
</svg>
